<svg width="19" height="16" viewBox="0 0 19 16" fill="none" xmlns="http://www.w3.org/2000/svg">
<g clip-path="url(#clip0_533_2)">
<path d="M6.58128 0.958674C6.72154 0.9466 6.98499 0.950784 7.12437 0.952839C8.45631 0.9716 9.7563 1.3638 10.8763 2.08482C12.0829 2.87547 12.9276 3.99271 13.2225 5.41343C13.0464 5.41187 12.8854 5.4035 12.7072 5.40795C12.0534 5.42231 11.4052 5.53111 10.7826 5.73099C8.29857 6.53526 6.43216 8.85997 7.3008 11.5302C6.89712 11.5388 6.62369 11.5341 6.22043 11.5027C5.93078 11.4702 5.70152 11.435 5.41149 11.3797C5.1756 11.3456 4.89989 11.2229 4.66581 11.2194C4.47276 11.2166 4.16748 11.4225 3.99892 11.5201L3.19154 11.9878C3.11655 12.0312 2.93079 12.1507 2.85199 12.1567C2.66368 12.1712 2.6035 11.9952 2.64637 11.8322C2.74667 11.4509 2.85831 11.0702 2.95219 10.6875C3.0148 10.4255 2.85048 10.2708 2.65377 10.1402C1.49674 9.26115 0.684037 7.95683 0.603206 6.4928C0.458091 3.86445 2.58614 1.83384 4.98828 1.20699C5.53668 1.06388 6.01459 0.993178 6.58128 0.958674Z" stroke="#50C433"/>
<path d="M4.79492 4.20837C4.98378 4.18832 5.15356 4.32532 5.17383 4.51404C5.19392 4.70266 5.05687 4.87246 4.86816 4.89294C4.67926 4.91319 4.50956 4.77614 4.48926 4.58728C4.46897 4.39831 4.60587 4.22855 4.79492 4.20837Z" fill="#51C332" stroke="#51C332"/>
<path d="M9.02905 4.20837C9.21808 4.18876 9.38736 4.32619 9.40698 4.51501C9.42656 4.70377 9.28924 4.87321 9.10034 4.89294C8.9114 4.91262 8.74221 4.77511 8.72241 4.5863C8.70276 4.39738 8.84002 4.22801 9.02905 4.20837Z" fill="#51C332" stroke="#51C332"/>
<path d="M12.7034 5.82072C13.9396 5.80193 15.0913 6.07911 16.1358 6.75606C17.1012 7.38168 17.8528 8.33334 18.09 9.46851C18.3695 10.8061 17.8902 12.1082 16.9359 13.0574C16.8312 13.1615 16.7367 13.2433 16.6243 13.3414C16.4994 13.4506 16.324 13.5521 16.2321 13.6858C16.2059 13.7291 16.1881 13.8238 16.1974 13.8745C16.2588 14.2099 16.3763 14.5444 16.4566 14.8759C16.5099 15.0962 16.3889 15.2273 16.1777 15.1158C16.0753 15.0617 15.9752 15.0003 15.8751 14.9422L15.3093 14.6141C14.8547 14.3508 14.8933 14.3285 14.3889 14.4561C14.2638 14.4882 14.1377 14.5158 14.0106 14.5389C13.7146 14.5926 13.4152 14.6254 13.1147 14.6371C11.6197 14.6992 10.0639 14.2124 8.95156 13.1915C8.14792 12.4548 7.62408 11.4658 7.58367 10.3691C7.50109 8.12798 9.38935 6.4405 11.4487 5.9808C11.8813 5.88422 12.2602 5.83725 12.7034 5.82072Z" stroke="#50C433"/>
<path d="M11.0818 8.61829C11.193 8.60218 11.2965 8.67995 11.3123 8.79114C11.3278 8.9021 11.2497 9.00521 11.1384 9.02063C11.0278 9.03573 10.9256 8.95829 10.9099 8.84778C10.8942 8.73713 10.9711 8.63435 11.0818 8.61829Z" fill="#50C433" stroke="#51C332"/>
<path d="M14.6101 8.61829C14.7213 8.60219 14.825 8.67983 14.8406 8.79114C14.8559 8.90243 14.7774 9.0059 14.6658 9.02063C14.5553 9.03513 14.4535 8.95732 14.4382 8.8468C14.4231 8.73642 14.4998 8.63426 14.6101 8.61829Z" fill="#50C433" stroke="#51C332"/>
</g>
<defs>
<clipPath id="clip0_533_2">
<rect width="18.7904" height="16" fill="white"/>
</clipPath>
</defs>
</svg>
