<svg width="19" height="16" viewBox="0 0 19 16" fill="none" xmlns="http://www.w3.org/2000/svg">
<g clip-path="url(#clip0_532_2665)">
<path d="M4.74232 3.71121C5.20551 3.66203 5.62099 3.99731 5.67072 4.4604C5.72043 4.9235 5.38561 5.33934 4.92253 5.38959C4.45871 5.43993 4.04201 5.10447 3.9922 4.64061C3.9424 4.17676 4.27838 3.76048 4.74232 3.71121Z" fill="#51C332"/>
<path d="M8.97733 3.71101C9.44096 3.66283 9.85585 3.99956 9.90402 4.46314C9.95228 4.92671 9.61556 5.3416 9.15199 5.38989C8.68831 5.43817 8.2733 5.10143 8.22506 4.63778C8.17682 4.17414 8.51364 3.75918 8.97733 3.71101Z" fill="#51C332"/>
<path d="M7.53522 0.502582C8.87169 0.521432 10.1785 0.890785 11.3243 1.57289L11.5508 1.71352L11.5538 1.71547C12.7875 2.52388 13.7548 4.0052 14.1436 5.43813C14.9353 5.58482 15.6941 5.87373 16.4083 6.33657C17.4631 7.02033 18.3098 8.07751 18.5792 9.36684C18.8977 10.8924 18.345 12.3606 17.2882 13.4118C17.1699 13.5294 17.0628 13.6226 16.9532 13.7184C16.9087 13.7573 16.8634 13.7927 16.8262 13.8209C16.7844 13.8527 16.7562 13.8733 16.7247 13.8981C16.7215 13.9006 16.7179 13.9025 16.7149 13.9049C16.7388 14.0111 16.7674 14.122 16.8008 14.2409C16.8453 14.3987 16.8994 14.5808 16.9424 14.7584L16.9669 14.9186C16.978 15.0962 16.9399 15.317 16.7569 15.487C16.5153 15.7111 16.2205 15.6747 16.0225 15.5944L15.9444 15.5582L15.6241 15.3747L15.0587 15.0465C14.9289 14.9714 14.867 14.9334 14.8057 14.9C14.7914 14.8922 14.781 14.8852 14.7735 14.8815C14.7698 14.8819 14.7653 14.8835 14.7598 14.8844C14.7123 14.8919 14.643 14.9079 14.5118 14.9411L14.5108 14.9401C14.375 14.9749 14.2378 15.0059 14.0997 15.0309C13.7807 15.0888 13.4576 15.1247 13.1339 15.1373L13.1329 15.1364C11.6252 15.1984 10.046 14.7444 8.84772 13.7633L8.61335 13.5602C8.15852 13.1432 7.78073 12.6474 7.51374 12.0954C7.20083 12.0914 6.88984 12.0741 6.586 12.0504L6.56843 12.0485C6.2654 12.0145 6.02345 11.9771 5.72175 11.9196V11.9186C5.56973 11.8942 5.40889 11.8468 5.30866 11.819C5.19465 11.7874 5.12579 11.7737 5.08015 11.7702C5.07812 11.7708 5.07582 11.7722 5.07331 11.7731C5.04602 11.7826 5.0072 11.7993 4.95807 11.8248L4.65339 12.0016L3.84577 12.4694C3.83378 12.4763 3.73604 12.5365 3.66804 12.5739C3.62874 12.5954 3.57908 12.6205 3.52839 12.6422C3.49022 12.6586 3.40029 12.6965 3.29401 12.7047C3.00735 12.7267 2.75414 12.5875 2.62507 12.3444C2.51732 12.1412 2.52294 11.9204 2.56647 11.7545L2.85749 10.6618C2.83931 10.6466 2.81486 10.6284 2.78132 10.6061L2.76765 10.5973L2.75495 10.5875C1.50333 9.63652 0.598317 8.20561 0.50788 6.56996C0.34547 3.62586 2.7192 1.43669 5.26569 0.772113C5.84462 0.621059 6.35231 0.546935 6.94245 0.510394V0.509418H6.94343C6.94716 0.50918 6.95142 0.508668 6.95515 0.508441V0.509418C7.12833 0.495961 7.41181 0.50076 7.53522 0.502582ZM12.7188 6.32094C12.3059 6.33651 11.9579 6.38003 11.5577 6.46938C9.64319 6.89679 8.0124 8.43315 8.08307 10.3512C8.11802 11.2944 8.56908 12.1627 9.28913 12.8229H9.29011C10.2922 13.7424 11.713 14.1947 13.0938 14.1373H13.0948C13.3719 14.1265 13.6484 14.097 13.921 14.0475H13.9219C14.037 14.0266 14.1514 14.0014 14.2647 13.9723L14.2667 13.9713C14.4777 13.9179 14.7211 13.8486 14.9678 13.8991C15.0954 13.9252 15.2011 13.9759 15.2842 14.0211C15.359 14.0619 15.4629 14.1253 15.5596 14.1813H15.5606L15.7842 14.3112C15.7552 14.1997 15.7269 14.083 15.7051 13.9645C15.6848 13.853 15.6987 13.7475 15.71 13.6862C15.7214 13.6249 15.7468 13.5232 15.8048 13.4274L15.8116 13.4147L15.8204 13.403C15.9117 13.2701 16.0297 13.1721 16.1075 13.111C16.2104 13.0301 16.2437 13.0103 16.295 12.9655C16.4101 12.8649 16.492 12.7934 16.5831 12.7028C17.4346 11.8558 17.8407 10.7203 17.6007 9.57094C17.3958 8.59027 16.7399 7.74293 15.8643 7.17543C14.9172 6.56159 13.8682 6.30471 12.7188 6.32094ZM7.02839 1.50649L7.01569 1.50746V1.50649C6.47796 1.53923 6.03219 1.6059 5.51862 1.73989C3.26107 2.329 1.3785 4.20208 1.50593 6.5143C1.57719 7.80501 2.29623 8.98172 3.35651 9.78871C3.4656 9.86267 3.61382 9.9747 3.72175 10.1383C3.85353 10.3382 3.90701 10.5843 3.84284 10.8532L3.84186 10.8561C3.79805 11.0347 3.74593 11.2182 3.69636 11.4L4.15241 11.1364C4.20759 11.1044 4.36403 11.007 4.49616 10.9381C4.61523 10.8761 4.84137 10.7647 5.07722 10.7682L5.21686 10.7789C5.35412 10.7956 5.48138 10.8291 5.57526 10.8551C5.65049 10.876 5.70935 10.8928 5.75886 10.9059L5.88679 10.9342L5.8985 10.9352L5.90925 10.9381C6.18263 10.9903 6.39667 11.0229 6.66608 11.0534C6.8341 11.0664 7.00163 11.0751 7.16804 11.0827C7.12141 10.8566 7.0928 10.6245 7.08405 10.3873C6.98973 7.82342 9.13587 5.98483 11.3399 5.49282C11.8036 5.38932 12.2128 5.33855 12.6846 5.32094H12.9424C12.9826 5.32156 13.0226 5.3246 13.0626 5.32582C12.6751 4.22458 11.9084 3.14373 11.0059 2.55239V2.55141C9.96567 1.88276 8.75819 1.51912 7.52155 1.50161H7.52057C7.36838 1.49936 7.13719 1.49719 7.02839 1.50649Z" fill="#51C332"/>
<path d="M11.0102 8.12369C11.3952 8.06789 11.7523 8.33549 11.8069 8.72068C11.8615 9.10588 11.5928 9.46212 11.2073 9.51552C10.8236 9.56864 10.4693 9.30139 10.415 8.91788C10.3607 8.5344 10.6268 8.17923 11.0102 8.12369Z" fill="#51C332"/>
<path d="M14.5386 8.12367C14.9245 8.06783 15.2821 8.33689 15.3354 8.72318C15.3887 9.10948 15.1173 9.46526 14.7306 9.516C14.3476 9.56627 13.9958 9.29792 13.9429 8.91524C13.8902 8.53254 14.1562 8.17899 14.5386 8.12367Z" fill="#51C332"/>
</g>
<defs>
<clipPath id="clip0_532_2665">
<rect width="18.7904" height="16" fill="white"/>
</clipPath>
</defs>
</svg>
